<svg width="841" height="501" viewBox="0 0 841 501" fill="none" xmlns="http://www.w3.org/2000/svg">
<path fill-rule="evenodd" clip-rule="evenodd" d="M418.805 465.154C501.146 418.821 556.545 332.223 556.545 233.038C556.545 133.853 501.146 47.2543 418.805 0.921875C336.463 47.2543 281.064 133.853 281.064 233.038C281.064 332.223 336.463 418.821 418.805 465.154Z" fill="black"/>
<path fill-rule="evenodd" clip-rule="evenodd" d="M444.509 471.597C519.402 417.042 567.843 330.2 567.843 232.389C567.843 231.982 567.842 231.576 567.84 231.17C651.825 177.271 755.293 173.89 839.974 213.845C846.656 306.146 803.955 399.302 719.496 454.874C635.038 510.447 530.257 514.333 444.668 473.951C444.612 473.166 444.558 472.382 444.509 471.597Z" fill="black"/>
<path fill-rule="evenodd" clip-rule="evenodd" d="M265.537 219.978C265.345 224.315 265.247 228.677 265.247 233.061C265.247 330.719 313.537 417.442 388.229 472.013C301.308 509.546 196.752 502.229 114.279 443.944C31.786 385.645 -7.67612 291.146 2.1886 199.114C85.4173 163.151 184.827 168.314 265.537 219.978Z" fill="black"/>
<path fill-rule="evenodd" clip-rule="evenodd" d="M264.512 205.95C264.602 165.568 273.876 127.283 290.41 92.9668C256.014 41.1018 197.196 13.5334 137.864 15.5919C115.522 56.7042 111.103 105.891 127.468 151.011C160.587 154.478 193.38 163.83 224.14 179.328C239.572 185.463 253.309 194.598 264.512 205.95Z" fill="black"/>
<path fill-rule="evenodd" clip-rule="evenodd" d="M574.392 213.268C574.288 172.886 563.682 134.602 544.775 100.286C584.111 48.4205 651.376 20.8519 719.229 22.9102C744.779 64.022 749.833 113.208 731.118 158.327C693.238 161.795 655.732 171.149 620.55 186.65C602.907 192.785 587.201 201.919 574.392 213.268Z" fill="black"/>
<path d="M598 331.5C598 420.648 518.485 494 419 494C319.515 494 240 420.648 240 331.5C240 242.352 319.515 169 419 169C518.485 169 598 242.352 598 331.5Z" fill="black" stroke="white" stroke-width="14"/>
<rect x="369.5" y="91.5" width="101" height="77" fill="black" stroke="white" stroke-width="11"/>
</svg>
