<?xml version="1.0" standalone="no"?>
<!DOCTYPE svg PUBLIC "-//W3C//DTD SVG 20010904//EN"
 "http://www.w3.org/TR/2001/REC-SVG-20010904/DTD/svg10.dtd">
<svg version="1.0" xmlns="http://www.w3.org/2000/svg"
 width="222.000000pt" height="149.000000pt" viewBox="0 0 222.000000 149.000000"
 preserveAspectRatio="xMidYMid meet">

<g transform="translate(0.000000,149.000000) scale(0.100000,-0.100000)"
fill="#000000" stroke="none">
<path d="M1004 1387 c-98 -73 -171 -162 -232 -284 -33 -64 -72 -191 -72 -231
0 -22 3 -21 58 21 65 51 95 67 170 91 l52 18 0 53 c0 67 20 85 95 85 75 0 95
-18 95 -85 l0 -53 53 -17 c63 -21 127 -57 185 -103 41 -34 42 -34 42 -11 0 40
-39 168 -70 230 -36 73 -82 141 -135 198 -45 50 -151 131 -170 131 -7 0 -39
-20 -71 -43z"/>
<path d="M432 1264 c-38 -76 -82 -242 -82 -309 0 -21 6 -23 89 -29 50 -4 122
-15 160 -25 l71 -19 6 27 c18 92 41 160 75 226 l38 75 -37 19 c-57 29 -166 60
-236 67 l-64 7 -20 -39z"/>
<path d="M1571 1289 c-59 -11 -137 -37 -183 -60 l-37 -19 38 -75 c22 -42 47
-108 56 -148 9 -39 19 -79 21 -88 4 -15 11 -15 75 2 39 10 110 21 160 25 83 6
89 8 89 29 0 66 -44 233 -82 308 -16 33 -22 37 -56 36 -20 -1 -57 -5 -81 -10z"/>
<path d="M1002 1108 c-7 -7 -12 -32 -12 -57 l0 -46 85 0 85 0 0 46 c0 25 -5
50 -12 57 -7 7 -39 12 -73 12 -34 0 -66 -5 -73 -12z"/>
<path d="M938 951 c-31 -10 -76 -30 -100 -44 -54 -31 -149 -130 -176 -182 -69
-137 -69 -303 0 -440 27 -52 122 -151 176 -182 141 -83 333 -83 474 0 54 31
149 130 176 182 69 137 69 303 0 440 -27 52 -122 151 -176 182 -106 63 -259
80 -374 44z"/>
<path d="M270 893 c-64 -11 -150 -37 -204 -61 l-59 -26 6 -71 c16 -190 126
-398 273 -519 82 -68 214 -137 314 -166 69 -20 300 -41 300 -28 0 3 -26 18
-57 34 -73 35 -179 141 -215 214 -87 176 -72 380 38 527 13 17 24 34 24 37 0
11 -71 35 -145 51 -68 14 -216 18 -275 8z"/>
<path d="M1605 886 c-84 -20 -140 -42 -138 -54 1 -5 16 -31 33 -56 67 -99 96
-255 70 -379 -28 -139 -131 -272 -265 -344 l-60 -32 82 -1 c260 -1 523 131
669 336 81 114 135 250 150 382 6 55 5 59 -20 75 -14 10 -67 31 -118 49 -81
27 -110 31 -218 34 -84 3 -145 -1 -185 -10z"/>
</g>
</svg>
